<svg width="261" height="64" viewBox="0 0 261 64" fill="none" xmlns="http://www.w3.org/2000/svg">
  <g clip-path="url(#clip0_3699_539)">
    <g clip-path="url(#clip1_3699_539)">
      <g clip-path="url(#clip2_3699_539)">
        <g clip-path="url(#clip3_3699_539)">
          <path
            d="M18.202 51.5939C17.1287 51.5939 16.0359 51.4775 14.9235 51.2445C13.8111 51.0082 12.8842 50.6988 12.1426 50.3164L12.2889 46.7705H12.5817L13.4891 48.4652C13.7623 48.9519 14.0551 49.3812 14.3673 49.7532C14.6795 50.1286 15.1089 50.4207 15.6553 50.6292C16.0456 50.8031 16.4223 50.9195 16.7852 50.9786C17.1443 51.0412 17.5483 51.0725 17.9971 51.0725C19.1875 51.0725 20.1282 50.7857 20.819 50.2121C21.5138 49.6385 21.8611 48.8998 21.8611 47.9959C21.8611 47.1442 21.6269 46.4785 21.1586 45.9988C20.6902 45.5226 19.9389 45.0585 18.9046 44.6066L17.7044 44.1372C16.0261 43.4768 14.7147 42.7154 13.7701 41.8533C12.8217 40.9947 12.3475 39.8527 12.3475 38.4274C12.3475 37.4019 12.6461 36.5155 13.2432 35.7681C13.8365 35.0207 14.6659 34.4471 15.7314 34.0473C16.793 33.6475 18.0362 33.4476 19.4608 33.4476C20.4951 33.4476 21.4767 33.5693 22.4056 33.8126C23.3306 34.056 24.1346 34.3862 24.8177 34.8034L24.642 37.9321H24.3493L23.1491 35.9766C22.8174 35.3683 22.4856 34.9372 22.1539 34.6835C21.8221 34.4332 21.4415 34.2559 21.0122 34.1516C20.7585 34.0821 20.5243 34.0334 20.3097 34.0056C20.095 33.9812 19.8218 33.9691 19.49 33.9691C18.4948 33.9691 17.6556 34.2246 16.9726 34.7356C16.2895 35.2501 15.948 35.9419 15.948 36.811C15.948 37.6974 16.2115 38.4048 16.7384 38.9332C17.2653 39.4651 18.0362 39.9396 19.0509 40.3568L20.3975 40.8782C22.2709 41.6082 23.6175 42.3852 24.4371 43.2091C25.2568 44.0364 25.6666 45.1019 25.6666 46.4055C25.6666 47.9351 25.0187 49.1814 23.7229 50.1443C22.4232 51.1107 20.5829 51.5939 18.202 51.5939ZM34.5948 51.1246H27.1595V50.8639L27.7449 50.6553C28.1352 50.5336 28.3928 50.3685 28.5177 50.1599C28.6465 49.9514 28.7109 49.6819 28.7109 49.3517V35.7159C28.7109 35.3683 28.6465 35.0902 28.5177 34.8816C28.3928 34.673 28.1352 34.5079 27.7449 34.3862L27.1595 34.1777V33.9169H34.5948V34.1777L34.0971 34.3602C33.7263 34.4818 33.4726 34.6417 33.336 34.8399C33.1994 35.0415 33.1311 35.3161 33.1311 35.6638V41.9993H40.1273V35.6638C40.1273 35.3161 40.0629 35.0415 39.9341 34.8399C39.8092 34.6417 39.5516 34.4818 39.1613 34.3602L38.6344 34.1777V33.9169H46.0989V34.1777L45.5135 34.3862C45.1427 34.5079 44.889 34.673 44.7524 34.8816C44.6158 35.0902 44.5475 35.3683 44.5475 35.7159V49.3517C44.5475 49.6819 44.6158 49.9514 44.7524 50.1599C44.889 50.3685 45.1427 50.5336 45.5135 50.6553L46.0989 50.8639V51.1246H38.6344V50.8639L39.1613 50.7075C39.5516 50.5684 39.8092 50.3981 39.9341 50.1964C40.0629 49.9983 40.1273 49.7254 40.1273 49.3778V42.5208H33.1311V49.3778C33.1311 50.0209 33.4531 50.4641 34.0971 50.7075L34.5948 50.8639V51.1246ZM56.6664 51.5939C55.1833 51.5939 53.8699 51.3593 52.7263 50.89C51.5866 50.4207 50.6987 49.6767 50.0625 48.6582C49.4302 47.6431 49.114 46.3012 49.114 44.6326V35.6377C49.114 34.9772 48.7335 34.5427 47.9724 34.3341L47.3284 34.1777V33.9169H55.4369V34.1777L54.588 34.3862C53.866 34.5427 53.5049 34.9772 53.5049 35.6898V45.3105C53.5049 46.927 53.8835 48.1211 54.6407 48.8928C55.4057 49.668 56.5005 50.0556 57.9251 50.0556C59.4083 50.0556 60.5831 49.6472 61.4496 48.8303C62.3199 48.0133 62.7551 46.8575 62.7551 45.3626V35.7941C62.7551 35.4465 62.6907 35.1371 62.5619 34.866C62.437 34.5983 62.1794 34.421 61.7891 34.3341L61.0573 34.1777V33.9169H65.1555V34.1777L64.3651 34.3602C63.9943 34.4297 63.7504 34.5948 63.6333 34.8555C63.5162 35.1163 63.4577 35.4204 63.4577 35.7681V45.3105C63.4577 46.5793 63.1747 47.6866 62.6088 48.6321C62.0428 49.5811 61.2525 50.3112 60.2377 50.8222C59.2229 51.3367 58.0325 51.5939 56.6664 51.5939ZM70.0089 51.1246H65.9693V50.8639L66.7011 50.6292C67.0914 50.4902 67.3939 50.3198 67.6085 50.1182C67.8232 49.9201 67.9988 49.6385 68.1355 49.2735L74.1656 33.8648H76.6538L82.5962 49.3778C82.7523 49.7602 82.9279 50.0504 83.1231 50.2486C83.3182 50.4502 83.6207 50.6205 84.0305 50.7596L84.3818 50.8639V51.1246H76.9465V50.8639L77.3856 50.7335C77.7955 50.5945 78.0452 50.3981 78.135 50.1443C78.2209 49.894 78.2053 49.595 78.0882 49.2474L76.7124 45.493H70.2138L68.8087 49.1692C68.6721 49.5516 68.6292 49.8558 68.6799 50.0817C68.7268 50.3077 68.9551 50.4902 69.3649 50.6292L70.0089 50.8639V51.1246ZM73.5802 36.8631L70.4187 44.9716H76.5367L73.5802 36.8631ZM90.2364 51.1246H85.7869V50.8639L86.7529 50.6032C87.1042 50.5163 87.3579 50.3459 87.514 50.0921C87.6701 49.8419 87.7482 49.5429 87.7482 49.1953V36.6545C87.5335 36.2374 87.3637 35.9245 87.2388 35.7159C87.11 35.5073 86.9676 35.3283 86.8115 35.1788C86.6553 35.0328 86.4407 34.8468 86.1675 34.6209L85.6698 34.1777V33.9169H90.8511L100.57 45.7277V35.8984C100.57 35.5508 100.507 35.2379 100.382 34.9598C100.253 34.6817 99.9939 34.4992 99.6036 34.4123L98.6376 34.1777V33.9169H102.824V34.1777L102.033 34.4123C101.682 34.5166 101.467 34.6991 101.389 34.9598C101.311 35.2205 101.272 35.5247 101.272 35.8724V51.2028H99.6329L88.4507 37.5149V49.1953C88.4507 49.5429 88.5093 49.8384 88.6264 50.0817C88.7435 50.3251 88.9874 50.4989 89.3582 50.6032L90.2364 50.8639V51.1246ZM114.533 51.5939C112.542 51.5939 110.79 51.2237 109.275 50.4832C107.765 49.7463 106.584 48.6947 105.733 47.3285C104.886 45.9658 104.463 44.3545 104.463 42.4947C104.463 40.687 104.882 39.1053 105.722 37.7496C106.561 36.3938 107.775 35.337 109.363 34.5792C110.956 33.8248 112.884 33.4476 115.147 33.4476C116.182 33.4476 117.142 33.5519 118.028 33.7605C118.918 33.9691 119.763 34.2733 120.563 34.673L120.68 38.3231H120.387L118.748 35.6116C118.494 35.1771 118.26 34.8642 118.045 34.673C117.831 34.4818 117.558 34.3341 117.226 34.2298C116.914 34.1429 116.625 34.0786 116.359 34.0369C116.098 33.9917 115.752 33.9691 115.323 33.9691C114.113 33.9691 113.044 34.2559 112.115 34.8295C111.19 35.4031 110.474 36.3156 109.966 37.567C109.459 38.8185 109.205 40.4611 109.205 42.4947C109.205 44.511 109.443 46.1535 109.919 47.4224C110.399 48.6912 111.079 49.6159 111.957 50.1964C112.835 50.7805 113.85 51.0725 115.001 51.0725C115.177 51.0725 115.347 51.0586 115.51 51.0307C115.678 51.0064 115.84 50.9769 115.996 50.9421C116.367 50.89 116.611 50.7509 116.728 50.5249C116.845 50.299 116.904 50.0296 116.904 49.7167V44.5544C116.904 43.8765 116.514 43.4594 115.733 43.3029L114.386 42.9901V42.7293H122.641V42.9901L122.231 43.0944C121.49 43.3029 121.119 43.7375 121.119 44.398V50.0556C120.104 50.5597 119.074 50.9421 118.028 51.2028C116.986 51.4635 115.821 51.5939 114.533 51.5939ZM140.17 51.5939C138.277 51.5939 136.565 51.2515 135.035 50.5667C133.501 49.8784 132.286 48.8563 131.388 47.5006C130.49 46.1448 130.041 44.4849 130.041 42.5208C130.041 41.026 130.315 39.7137 130.861 38.5839C131.407 37.4541 132.155 36.5068 133.103 35.742C134.048 34.9772 135.141 34.4036 136.382 34.0212C137.619 33.6388 138.931 33.4476 140.316 33.4476C141.429 33.4476 142.453 33.5606 143.39 33.7866C144.327 34.0125 145.205 34.3254 146.024 34.7252L146.141 37.9321H145.849L144.385 35.8463C144.19 35.516 143.975 35.2153 143.741 34.9442C143.507 34.6765 143.214 34.4731 142.863 34.3341C142.57 34.2124 142.283 34.1203 142.002 34.0577C141.717 33.9986 141.36 33.9691 140.931 33.9691C139.799 33.9691 138.771 34.2385 137.846 34.7773C136.917 35.3161 136.175 36.2061 135.621 37.4471C135.063 38.6916 134.784 40.3915 134.784 42.5468C134.784 44.6848 135.047 46.3742 135.574 47.6153C136.101 48.8598 136.819 49.7463 137.728 50.2747C138.634 50.8065 139.653 51.0725 140.785 51.0725C141.409 51.0725 141.907 51.0325 142.277 50.9525C142.648 50.8761 143.019 50.7596 143.39 50.6032C143.761 50.4641 144.044 50.259 144.239 49.9879C144.434 49.7202 144.609 49.4299 144.766 49.117L146.054 46.562H146.346L146.259 50.2903C145.439 50.6727 144.522 50.9856 143.507 51.2289C142.492 51.4722 141.38 51.5939 140.17 51.5939ZM155.275 51.1246H147.751V50.8639L148.337 50.6553C148.727 50.5336 148.987 50.3685 149.116 50.1599C149.24 49.9514 149.303 49.6733 149.303 49.3256V35.7159C149.303 35.3683 149.244 35.0902 149.127 34.8816C149.01 34.673 148.747 34.5079 148.337 34.3862L147.751 34.1777V33.9169H155.275V34.1777L154.689 34.3862C154.299 34.5079 154.041 34.673 153.916 34.8816C153.787 35.0902 153.723 35.3683 153.723 35.7159V49.3256C153.723 49.6733 153.787 49.9461 153.916 50.1443C154.041 50.3459 154.299 50.5163 154.689 50.6553L155.275 50.8639V51.1246ZM161.393 51.1246H156.943V50.8639L157.909 50.6032C158.26 50.5163 158.514 50.3459 158.67 50.0921C158.826 49.8419 158.904 49.5429 158.904 49.1953V36.6545C158.69 36.2374 158.518 35.9245 158.389 35.7159C158.264 35.5073 158.124 35.3283 157.968 35.1788C157.811 35.0328 157.597 34.8468 157.324 34.6209L156.826 34.1777V33.9169H162.007L171.726 45.7277V35.8984C171.726 35.5508 171.661 35.2379 171.533 34.9598C171.408 34.6817 171.15 34.4992 170.76 34.4123L169.794 34.1777V33.9169H173.98V34.1777L173.189 34.4123C172.838 34.5166 172.623 34.6991 172.545 34.9598C172.467 35.2205 172.428 35.5247 172.428 35.8724V51.2028H170.789L159.607 37.5149V49.1953C159.607 49.5429 159.665 49.8384 159.783 50.0817C159.9 50.3251 160.144 50.4989 160.514 50.6032L161.393 50.8639V51.1246ZM190.285 51.1246H175.678V50.8639L176.351 50.6292C176.683 50.5076 176.911 50.3459 177.036 50.1443C177.165 49.9461 177.229 49.6733 177.229 49.3256V35.7159C177.229 35.3683 177.174 35.0937 177.065 34.892C176.96 34.6939 176.722 34.534 176.351 34.4123L175.678 34.1777V33.9169H189.699L189.875 37.9321H189.582L188.323 35.4813C188.148 35.1684 187.962 34.9164 187.767 34.7252C187.572 34.534 187.279 34.4384 186.889 34.4384H181.62V41.9733H184.752C185.142 41.9733 185.439 41.8829 185.642 41.7021C185.849 41.5179 186.03 41.2693 186.187 40.9564L186.772 39.9135H187.065V44.6066H186.772L186.187 43.5115C186.011 43.1986 185.825 42.9501 185.63 42.7659C185.435 42.5851 185.142 42.4947 184.752 42.4947H181.62V50.6032H187.533C187.923 50.6032 188.226 50.511 188.441 50.3268C188.655 50.146 188.831 49.8905 188.967 49.5603L190.168 47.1095H190.46L190.285 51.1246ZM195.724 51.1246H191.86V50.8639L192.445 50.6814C193.109 50.4902 193.44 49.9948 193.44 49.1953V35.8463C193.44 35.4986 193.397 35.2205 193.312 35.012C193.222 34.8034 192.991 34.6296 192.621 34.4905L191.86 34.1777V33.9169H197.509L202.925 46.5359L208.018 33.9169H213.785V34.1777L213.316 34.3341C212.946 34.4558 212.692 34.6244 212.555 34.8399C212.419 35.0589 212.35 35.3422 212.35 35.6898V49.3256C212.35 49.6733 212.399 49.9427 212.497 50.1339C212.594 50.3251 212.829 50.4902 213.199 50.6292L213.785 50.8639V51.1246H206.496V50.8639L207.111 50.6292C207.481 50.4902 207.716 50.3251 207.813 50.1339C207.911 49.9427 207.96 49.6733 207.96 49.3256V43.4594L208.018 36.0027L201.9 51.1246H200.436L194.055 36.1852L194.143 42.6772V49.2474C194.143 49.6298 194.207 49.9375 194.336 50.1704C194.461 50.4068 194.709 50.5771 195.08 50.6814L195.724 50.8639V51.1246ZM218.703 51.1246H214.663V50.8639L215.395 50.6292C215.785 50.4902 216.088 50.3198 216.302 50.1182C216.517 49.9201 216.693 49.6385 216.829 49.2735L222.859 33.8648H225.348L231.29 49.3778C231.446 49.7602 231.622 50.0504 231.817 50.2486C232.012 50.4502 232.314 50.6205 232.724 50.7596L233.076 50.8639V51.1246H225.64V50.8639L226.079 50.7335C226.489 50.5945 226.739 50.3981 226.829 50.1443C226.915 49.894 226.899 49.595 226.782 49.2474L225.406 45.493H218.908L217.502 49.1692C217.366 49.5516 217.323 49.8558 217.374 50.0817C217.421 50.3077 217.649 50.4902 218.059 50.6292L218.703 50.8639V51.1246ZM222.274 36.8631L219.112 44.9716H225.23L222.274 36.8631ZM240.394 51.5939C239.32 51.5939 238.228 51.4775 237.115 51.2445C236.003 51.0082 235.076 50.6988 234.334 50.3164L234.481 46.7705H234.773L235.681 48.4652C235.954 48.9519 236.247 49.3812 236.559 49.7532C236.871 50.1286 237.301 50.4207 237.847 50.6292C238.237 50.8031 238.612 50.9195 238.971 50.9786C239.334 51.0412 239.74 51.0725 240.189 51.0725C241.379 51.0725 242.32 50.7857 243.011 50.2121C243.705 49.6385 244.053 48.8998 244.053 47.9959C244.053 47.1442 243.819 46.4785 243.35 45.9988C242.882 45.5226 242.131 45.0585 241.096 44.6066L239.896 44.1372C238.218 43.4768 236.904 42.7154 235.956 41.8533C235.011 40.9947 234.539 39.8527 234.539 38.4274C234.539 37.4019 234.836 36.5155 235.429 35.7681C236.026 35.0207 236.856 34.4471 237.917 34.0473C238.983 33.6475 240.228 33.4476 241.652 33.4476C242.687 33.4476 243.666 33.5693 244.591 33.8126C245.52 34.056 246.326 34.3862 247.009 34.8034L246.834 37.9321H246.541L245.341 35.9766C245.009 35.3683 244.677 34.9372 244.346 34.6835C244.014 34.4332 243.633 34.2559 243.204 34.1516C242.95 34.0821 242.716 34.0334 242.501 34.0056C242.287 33.9812 242.014 33.9691 241.682 33.9691C240.686 33.9691 239.847 34.2246 239.164 34.7356C238.481 35.2501 238.14 35.9419 238.14 36.811C238.14 37.6974 238.403 38.4048 238.93 38.9332C239.457 39.4651 240.228 39.9396 241.243 40.3568L242.589 40.8782C244.463 41.6082 245.809 42.3852 246.629 43.2091C247.448 44.0364 247.858 45.1019 247.858 46.4055C247.858 47.9351 247.208 49.1814 245.909 50.1443C244.613 51.1107 242.775 51.5939 240.394 51.5939Z"
            fill="white" />
        </g>
      </g>
    </g>
  </g>
  <g clip-path="url(#clip4_3699_539)">
    <g clip-path="url(#clip5_3699_539)">
      <path d="M139.642 0L135.931 0.964308L137.735 5.3258L141.291 4.40745L139.642 0Z" fill="#EEE4C3" />
      <path
        d="M133.663 1.51527L128.817 2.75456L128.921 2.93838L129.848 5.18794L130.673 7.1163L135.519 5.87677L133.663 1.51527Z"
        fill="#EEE4C3" />
      <path
        d="M126.601 3.30551L122.322 4.40744L124.178 8.76918L128.456 7.66725L127.374 5.18792L126.601 3.30551Z"
        fill="#EEE4C3" />
      <path d="M120.106 4.9584L116.549 5.87676L118.199 10.2842L121.91 9.32015L120.106 4.9584Z"
        fill="#EEE4C3" />
      <path
        d="M118.198 10.2842V23.5065C118.198 24.3205 118.934 24.9756 119.848 24.9756H141.291C142.205 24.9756 142.941 24.3205 142.941 23.5065V10.2842H118.198ZM139.642 17.6298H121.497V13.2226H139.642L139.642 17.6298Z"
        fill="#EEE4C3" />
    </g>
  </g>
  <path d="M260.867 61.6584H0.867188V63.2194H260.867V61.6584Z" fill="url(#paint0_linear_3699_539)" />
  <path d="M260.427 20.2927H150.8V22.0894H260.427V20.2927Z" fill="url(#paint1_linear_3699_539)" />
  <path d="M109.627 20.2927H0V22.0894H109.627V20.2927Z" fill="url(#paint2_linear_3699_539)" />
  <defs>
    <linearGradient id="paint0_linear_3699_539" x1="2.47566" y1="62.6421" x2="260.694" y2="62.6421"
      gradientUnits="userSpaceOnUse">
      <stop stop-color="#8D7129" stop-opacity="0" />
      <stop offset="0.1125" stop-color="#E7C673" />
      <stop offset="0.417697" stop-color="#DDD2AC" />
      <stop offset="0.867708" stop-color="#8D7129" />
      <stop offset="1" stop-color="#E7C673" stop-opacity="0" />
    </linearGradient>
    <linearGradient id="paint1_linear_3699_539" x1="151.478" y1="21.4249" x2="260.354" y2="21.4249"
      gradientUnits="userSpaceOnUse">
      <stop stop-color="#8D7129" stop-opacity="0" />
      <stop offset="0.1125" stop-color="#E7C673" />
      <stop offset="0.417697" stop-color="#DDD2AC" />
      <stop offset="0.867708" stop-color="#8D7129" />
      <stop offset="1" stop-color="#E7C673" stop-opacity="0" />
    </linearGradient>
    <linearGradient id="paint2_linear_3699_539" x1="0.678203" y1="21.4249" x2="109.554" y2="21.4249"
      gradientUnits="userSpaceOnUse">
      <stop stop-color="#8D7129" stop-opacity="0" />
      <stop offset="0.1125" stop-color="#E7C673" />
      <stop offset="0.417697" stop-color="#DDD2AC" />
      <stop offset="0.867708" stop-color="#8D7129" />
      <stop offset="1" stop-color="#E7C673" stop-opacity="0" />
    </linearGradient>
    <clipPath id="clip0_3699_539">
      <rect width="235.733" height="18.1463" fill="white" transform="translate(12.1338 33.4476)" />
    </clipPath>
    <clipPath id="clip1_3699_539">
      <rect width="235.733" height="18.1463" fill="white" transform="translate(12.1338 33.4476)" />
    </clipPath>
    <clipPath id="clip2_3699_539">
      <rect width="235.733" height="18.1463" fill="white" transform="translate(12.1338 33.4476)" />
    </clipPath>
    <clipPath id="clip3_3699_539">
      <rect width="235.733" height="18.1463" fill="white" transform="translate(12.1338 33.4476)" />
    </clipPath>
    <clipPath id="clip4_3699_539">
      <rect width="35.8895" height="24.9756" fill="white" transform="translate(111.8)" />
    </clipPath>
    <clipPath id="clip5_3699_539">
      <rect width="26.3924" height="24.9756" fill="white" transform="translate(116.549)" />
    </clipPath>
  </defs>
</svg>